<svg xmlns="http://www.w3.org/2000/svg" viewBox="0 0 320 96" role="img" aria-labelledby="title desc">
  <title id="title">Best Coatings Solutions temporary logo</title>
  <desc id="desc">Temporary replaceable BCS logo mark until the final brand SVG is supplied.</desc>
  <defs>
    <linearGradient id="bcsMetal" x1="0%" y1="0%" x2="100%" y2="100%">
      <stop offset="0%" stop-color="#ffffff"/>
      <stop offset="55%" stop-color="#cbd3dc"/>
      <stop offset="100%" stop-color="#9aa7b5"/>
    </linearGradient>
    <linearGradient id="bcsElectric" x1="0%" y1="50%" x2="100%" y2="50%">
      <stop offset="0%" stop-color="#3b9dff" stop-opacity="0"/>
      <stop offset="50%" stop-color="#0a84ff"/>
      <stop offset="100%" stop-color="#3b9dff" stop-opacity="0"/>
    </linearGradient>
  </defs>
  <rect x="4" y="16" width="64" height="64" rx="14" fill="#0a1a2f" stroke="#0a84ff" stroke-opacity="0.55" stroke-width="1.5"/>
  <path id="bcs-mark" fill="url(#bcsMetal)" d="M18 66V30h12.2c7.4 0 12.2 3.8 12.2 10.2 0 4.2-2.2 7.4-5.8 8.8 4.4 1.2 7.2 4.8 7.2 9.8 0 7-5.2 11.2-13.2 11.2H18zm10.4-21.2h2.4c3.2 0 5-1.6 5-4.2s-1.8-4-5-4H28.4v8.2zm0 16.6h3c3.6 0 5.6-1.8 5.6-4.6 0-2.8-2-4.4-5.6-4.4h-3v9z"/>
  <text x="88" y="48" fill="url(#bcsMetal)" font-family="ui-sans-serif, system-ui, sans-serif" font-size="28" font-weight="600" letter-spacing="0.02em">BCS</text>
  <text x="88" y="72" fill="#9aa7b5" font-family="ui-sans-serif, system-ui, sans-serif" font-size="12" letter-spacing="0.18em">BEST COATINGS SOLUTIONS</text>
  <rect x="88" y="20" width="160" height="2" fill="url(#bcsElectric)" opacity="0.9"/>
</svg>
